# xmcd
# 
# Track frame offsets:
#     182
#     15620
#     31955
#     51032
# 
# Disc length: 944
# 
# Revision: 7
# Processed by: cddbd v1.5.2PL0 Copyright (c) Steve Scherf et al.
# Submitted via: fre:ac v1.0.31
# 
DISCID=2603ae04
DTITLE=Modern Talking - Brother Louie '98
DYEAR=1998
DGENRE=Pop
TTITLE0=Brother Louie '98 (Feat. Eric Singleton) [Radio Edit]
TTITLE1=Brother Louie '98 [New Version]
TTITLE2=Brother Louie '98 [Feat. Eric Singleton) [Extended Version]
TTITLE3=Cheri Cheri Lady '98 (Feat. Eric Singleton) [Extended Version]
EXTD=
EXTT0=
EXTT1=
EXTT2=
EXTT3=
PLAYORDER=
